<svg width="170" height="170" viewBox="0 0 415 149" fill="none" xmlns="http://www.w3.org/2000/svg">
<path fill-rule="evenodd" clip-rule="evenodd" d="M3.32962e-05 139C3.32962e-05 124.817 2.87043 110.773 8.44731 97.6702C14.0242 84.567 22.1984 72.6612 32.5031 62.6325C42.8079 52.6037 55.0414 44.6485 68.5052 39.221C81.969 33.7935 96.3994 31 110.973 31L110.973 139H63.413V108.78V107.834H63.3645C62.8184 102.531 57.7253 98.3761 51.5231 98.3761C45.3208 98.3761 40.2277 102.531 39.6816 107.834H39.6332V108.78V139H3.32962e-05Z" fill="#CDA274"/>
<path d="M133.139 97V96.07L135.092 95.419C136.332 94.985 137.138 94.427 137.51 93.745C137.882 93.001 138.068 91.978 138.068 90.676V42.037C138.068 40.797 137.882 39.836 137.51 39.154C137.2 38.41 136.456 37.821 135.278 37.387L133.139 36.55V35.62H159.737C167.053 35.62 172.664 37.015 176.57 39.805C180.476 42.533 182.429 46.346 182.429 51.244C182.429 53.972 181.406 56.7 179.36 59.428C177.314 62.156 174.09 64.264 169.688 65.752L182.615 91.42C183.173 92.474 183.793 93.342 184.475 94.024C185.219 94.644 186.18 95.202 187.358 95.698L188.567 96.163V97H171.92L158.156 67.705H151.832V90.676C151.832 91.854 152.018 92.815 152.39 93.559C152.762 94.303 153.537 94.861 154.715 95.233L156.947 96.07V97H133.139ZM151.832 65.845H156.296C160.76 65.845 163.984 64.667 165.968 62.311C167.952 59.893 168.944 56.328 168.944 51.616C168.944 46.842 168.014 43.308 166.154 41.014C164.294 38.658 161.163 37.48 156.761 37.48H151.832V65.845ZM204.384 98.395C200.788 98.395 197.75 97.372 195.27 95.326C192.852 93.28 191.643 90.335 191.643 86.491C191.643 83.577 193.131 80.911 196.107 78.493C199.083 76.013 203.764 74.153 210.15 72.913C211.142 72.727 212.258 72.541 213.498 72.355C214.738 72.107 216.04 71.859 217.404 71.611V64.264C217.404 60.048 216.877 57.103 215.823 55.429C214.831 53.693 213.25 52.825 211.08 52.825C209.592 52.825 208.414 53.321 207.546 54.313C206.678 55.243 206.12 56.886 205.872 59.242L205.686 60.265C205.562 62.931 204.911 64.884 203.733 66.124C202.555 67.364 201.098 67.984 199.362 67.984C197.75 67.984 196.417 67.488 195.363 66.496C194.309 65.504 193.782 64.171 193.782 62.497C193.782 59.955 194.65 57.816 196.386 56.08C198.184 54.344 200.54 53.042 203.454 52.174C206.368 51.306 209.53 50.872 212.94 50.872C218.458 50.872 222.705 52.236 225.681 54.964C228.719 57.63 230.238 62.001 230.238 68.077V88.63C230.238 91.42 231.54 92.815 234.144 92.815H236.19L237.027 93.559C235.849 95.047 234.547 96.194 233.121 97C231.757 97.806 229.804 98.209 227.262 98.209C224.534 98.209 222.364 97.589 220.752 96.349C219.202 95.047 218.179 93.342 217.683 91.234C215.823 93.218 213.901 94.923 211.917 96.349C209.995 97.713 207.484 98.395 204.384 98.395ZM210.057 92.722C211.297 92.722 212.444 92.443 213.498 91.885C214.614 91.265 215.916 90.335 217.404 89.095V73.471C216.784 73.595 216.164 73.719 215.544 73.843C214.924 73.967 214.211 74.091 213.405 74.215C210.553 74.959 208.259 76.23 206.523 78.028C204.849 79.764 204.012 82.12 204.012 85.096C204.012 87.638 204.601 89.56 205.779 90.862C206.957 92.102 208.383 92.722 210.057 92.722ZM262.47 98.395C257.758 98.395 253.666 97.434 250.194 95.512C246.722 93.528 244.025 90.738 242.103 87.142C240.243 83.546 239.313 79.33 239.313 74.494C239.313 69.658 240.305 65.473 242.289 61.939C244.335 58.405 247.094 55.677 250.566 53.755C254.1 51.833 258.068 50.872 262.47 50.872C266.872 50.872 270.809 51.833 274.281 53.755C277.753 55.615 280.481 58.312 282.465 61.846C284.511 65.38 285.534 69.596 285.534 74.494C285.534 79.392 284.573 83.639 282.651 87.235C280.791 90.769 278.125 93.528 274.653 95.512C271.243 97.434 267.182 98.395 262.47 98.395ZM262.47 96.535C264.64 96.535 266.376 95.915 267.678 94.675C268.98 93.435 269.91 91.234 270.468 88.072C271.088 84.91 271.398 80.446 271.398 74.68C271.398 68.852 271.088 64.357 270.468 61.195C269.91 58.033 268.98 55.832 267.678 54.592C266.376 53.352 264.64 52.732 262.47 52.732C260.3 52.732 258.533 53.352 257.169 54.592C255.867 55.832 254.906 58.033 254.286 61.195C253.728 64.357 253.449 68.852 253.449 74.68C253.449 80.446 253.728 84.91 254.286 88.072C254.906 91.234 255.867 93.435 257.169 94.675C258.533 95.915 260.3 96.535 262.47 96.535ZM289.534 97V96.07L290.65 95.698C292.882 94.954 293.998 93.404 293.998 91.048V41.293C293.998 40.053 293.75 39.123 293.254 38.503C292.758 37.821 291.89 37.325 290.65 37.015L289.441 36.736V35.806L306.46 31.807L307.576 32.644L307.204 45.664V77.47C307.204 79.764 307.204 82.058 307.204 84.352C307.266 86.584 307.297 88.816 307.297 91.048C307.297 92.288 307.545 93.311 308.041 94.117C308.537 94.861 309.374 95.419 310.552 95.791L311.761 96.07V97H289.534ZM339.208 50.872C343.238 50.872 346.679 51.709 349.531 53.383C352.383 54.995 354.553 57.227 356.041 60.079C357.591 62.869 358.366 66.062 358.366 69.658C358.366 70.34 358.335 71.053 358.273 71.797C358.211 72.479 358.087 73.099 357.901 73.657H330.187C330.249 80.353 331.427 85.189 333.721 88.165C336.077 91.079 339.549 92.536 344.137 92.536C347.237 92.536 349.748 92.04 351.67 91.048C353.592 90.056 355.39 88.599 357.064 86.677L357.994 87.514C356.072 90.924 353.499 93.59 350.275 95.512C347.113 97.434 343.3 98.395 338.836 98.395C334.434 98.395 330.528 97.465 327.118 95.605C323.708 93.683 321.042 90.955 319.12 87.421C317.198 83.887 316.237 79.671 316.237 74.773C316.237 69.689 317.353 65.38 319.585 61.846C321.817 58.25 324.669 55.522 328.141 53.662C331.675 51.802 335.364 50.872 339.208 50.872ZM338.929 52.732C337.131 52.732 335.581 53.29 334.279 54.406C333.039 55.46 332.047 57.382 331.303 60.172C330.621 62.9 330.249 66.775 330.187 71.797H346.09C346.71 65.039 346.462 60.172 345.346 57.196C344.23 54.22 342.091 52.732 338.929 52.732ZM363.001 97V96.07L364.303 95.698C366.473 95.078 367.558 93.559 367.558 91.141V62.032C367.558 60.668 367.341 59.676 366.907 59.056C366.473 58.374 365.636 57.909 364.396 57.661L363.001 57.289V56.359L378.904 50.965L379.834 51.895L380.578 57.475C382.748 55.553 385.197 53.972 387.925 52.732C390.653 51.492 393.35 50.872 396.016 50.872C400.108 50.872 403.239 51.988 405.409 54.22C407.641 56.452 408.757 59.862 408.757 64.45V91.234C408.757 93.652 409.935 95.171 412.291 95.791L413.128 96.07V97H391.18V96.07L392.389 95.698C394.559 95.016 395.644 93.497 395.644 91.141V61.474C395.644 57.506 393.66 55.522 389.692 55.522C386.964 55.522 383.988 56.886 380.764 59.614V91.234C380.764 93.652 381.849 95.171 384.019 95.791L384.856 96.07V97H363.001Z" fill="#292F36"/>
<path d="M147.27 136.684C144.686 136.684 142.406 136.152 140.43 135.088C138.479 133.999 136.946 132.466 135.832 130.49C134.742 128.489 134.198 126.133 134.198 123.422C134.198 120.787 134.742 118.482 135.832 116.506C136.921 114.53 138.492 112.997 140.544 111.908C142.621 110.793 145.129 110.236 148.068 110.236C149.41 110.236 150.652 110.388 151.792 110.692C152.957 110.996 154.059 111.439 155.098 112.022L155.25 117.342H154.87L152.742 113.39C152.412 112.757 152.108 112.301 151.83 112.022C151.551 111.743 151.196 111.528 150.766 111.376C150.36 111.249 149.98 111.161 149.626 111.11C149.296 111.034 148.853 110.996 148.296 110.996C146.725 110.996 145.332 111.414 144.116 112.25C142.925 113.086 142 114.416 141.342 116.24C140.683 118.064 140.354 120.458 140.354 123.422C140.354 126.361 140.658 128.755 141.266 130.604C141.899 132.453 142.786 133.809 143.926 134.67C145.066 135.506 146.383 135.924 147.878 135.924C148.106 135.924 148.321 135.911 148.524 135.886C148.752 135.835 148.967 135.785 149.17 135.734C149.651 135.658 149.968 135.455 150.12 135.126C150.272 134.797 150.348 134.404 150.348 133.948V126.424C150.348 125.436 149.841 124.828 148.828 124.6L147.08 124.144V123.764H157.796V124.144L157.264 124.296C156.301 124.6 155.82 125.233 155.82 126.196V134.442C154.502 135.177 153.16 135.734 151.792 136.114C150.449 136.494 148.942 136.684 147.27 136.684ZM183.075 136V135.62L183.645 135.468C184.152 135.316 184.494 135.088 184.671 134.784C184.874 134.48 184.975 134.087 184.975 133.606V121.712C184.975 121.155 184.874 120.749 184.671 120.496C184.494 120.217 184.152 120.027 183.645 119.926L183.075 119.774V119.394L189.611 117.19L189.991 117.57L190.333 120.838V121.142C190.688 120.433 191.144 119.787 191.701 119.204C192.284 118.596 192.917 118.102 193.601 117.722C194.311 117.342 195.007 117.152 195.691 117.152C196.654 117.152 197.389 117.418 197.895 117.95C198.402 118.482 198.655 119.153 198.655 119.964C198.655 120.825 198.402 121.497 197.895 121.978C197.414 122.434 196.831 122.662 196.147 122.662C195.083 122.662 194.146 122.13 193.335 121.066L193.259 120.99C193.006 120.635 192.715 120.445 192.385 120.42C192.056 120.369 191.752 120.521 191.473 120.876C191.22 121.104 191.005 121.383 190.827 121.712C190.675 122.016 190.523 122.371 190.371 122.776V133.378C190.371 134.391 190.815 135.025 191.701 135.278L192.917 135.62V136H183.075ZM228.52 136.57C227.051 136.57 225.81 136.152 224.796 135.316C223.808 134.48 223.314 133.277 223.314 131.706C223.314 130.515 223.922 129.426 225.138 128.438C226.354 127.425 228.267 126.665 230.876 126.158C231.282 126.082 231.738 126.006 232.244 125.93C232.751 125.829 233.283 125.727 233.84 125.626V122.624C233.84 120.901 233.625 119.698 233.194 119.014C232.789 118.305 232.143 117.95 231.256 117.95C230.648 117.95 230.167 118.153 229.812 118.558C229.458 118.938 229.23 119.609 229.128 120.572L229.052 120.99C229.002 122.079 228.736 122.877 228.254 123.384C227.773 123.891 227.178 124.144 226.468 124.144C225.81 124.144 225.265 123.941 224.834 123.536C224.404 123.131 224.188 122.586 224.188 121.902C224.188 120.863 224.543 119.989 225.252 119.28C225.987 118.571 226.95 118.039 228.14 117.684C229.331 117.329 230.623 117.152 232.016 117.152C234.271 117.152 236.006 117.709 237.222 118.824C238.464 119.913 239.084 121.699 239.084 124.182V132.58C239.084 133.72 239.616 134.29 240.68 134.29H241.516L241.858 134.594C241.377 135.202 240.845 135.671 240.262 136C239.705 136.329 238.907 136.494 237.868 136.494C236.754 136.494 235.867 136.241 235.208 135.734C234.575 135.202 234.157 134.505 233.954 133.644C233.194 134.455 232.409 135.151 231.598 135.734C230.813 136.291 229.787 136.57 228.52 136.57ZM230.838 134.252C231.345 134.252 231.814 134.138 232.244 133.91C232.7 133.657 233.232 133.277 233.84 132.77V126.386C233.587 126.437 233.334 126.487 233.08 126.538C232.827 126.589 232.536 126.639 232.206 126.69C231.041 126.994 230.104 127.513 229.394 128.248C228.71 128.957 228.368 129.92 228.368 131.136C228.368 132.175 228.609 132.96 229.09 133.492C229.572 133.999 230.154 134.252 230.838 134.252ZM274.636 136.57C273.142 136.57 271.799 136.241 270.608 135.582C269.418 134.898 268.468 133.859 267.758 132.466C267.074 131.047 266.732 129.236 266.732 127.032C266.732 124.803 267.125 122.966 267.91 121.522C268.696 120.053 269.734 118.963 271.026 118.254C272.318 117.519 273.724 117.152 275.244 117.152C276.131 117.152 276.98 117.241 277.79 117.418C278.601 117.595 279.323 117.861 279.956 118.216V113.276C279.956 112.744 279.868 112.351 279.69 112.098C279.538 111.845 279.196 111.667 278.664 111.566L277.942 111.414V111.034L284.858 109.362L285.276 109.704L285.124 115.024V133.606C285.124 134.113 285.213 134.531 285.39 134.86C285.568 135.164 285.897 135.379 286.378 135.506L286.72 135.62V136L280.222 136.418L279.88 135.05C279.196 135.506 278.411 135.873 277.524 136.152C276.663 136.431 275.7 136.57 274.636 136.57ZM276.84 135.164C277.904 135.164 278.88 134.847 279.766 134.214V119.128C278.829 118.52 277.866 118.216 276.878 118.216C275.662 118.216 274.624 118.925 273.762 120.344C272.901 121.737 272.47 123.941 272.47 126.956C272.47 129.971 272.876 132.099 273.686 133.34C274.497 134.556 275.548 135.164 276.84 135.164ZM312.341 136V135.62L312.873 135.468C313.759 135.215 314.203 134.594 314.203 133.606V121.712C314.203 121.155 314.114 120.749 313.937 120.496C313.759 120.217 313.417 120.027 312.911 119.926L312.341 119.774V119.394L318.839 117.19L319.219 117.57L319.523 119.85C320.409 119.065 321.41 118.419 322.525 117.912C323.639 117.405 324.741 117.152 325.831 117.152C327.503 117.152 328.782 117.608 329.669 118.52C330.581 119.432 331.037 120.825 331.037 122.7V133.644C331.037 134.632 331.518 135.253 332.481 135.506L332.823 135.62V136H323.855V135.62L324.349 135.468C325.235 135.189 325.679 134.569 325.679 133.606V121.484C325.679 119.863 324.868 119.052 323.247 119.052C322.132 119.052 320.916 119.609 319.599 120.724V133.644C319.599 134.632 320.042 135.253 320.929 135.506L321.271 135.62V136H312.341ZM363.113 115.176C362.252 115.176 361.53 114.91 360.947 114.378C360.365 113.821 360.073 113.124 360.073 112.288C360.073 111.427 360.365 110.73 360.947 110.198C361.53 109.666 362.252 109.4 363.113 109.4C363.975 109.4 364.697 109.666 365.279 110.198C365.887 110.73 366.191 111.427 366.191 112.288C366.191 113.124 365.887 113.821 365.279 114.378C364.697 114.91 363.975 115.176 363.113 115.176ZM357.489 145.12C356.045 145.12 355.007 144.867 354.373 144.36C353.74 143.879 353.423 143.245 353.423 142.46C353.423 141.751 353.677 141.181 354.183 140.75C354.69 140.319 355.285 140.104 355.969 140.104C356.653 140.104 357.274 140.269 357.831 140.598C358.389 140.953 358.819 141.497 359.123 142.232L359.503 143.068C359.681 143.347 359.883 143.435 360.111 143.334C360.365 143.258 360.491 142.865 360.491 142.156V121.712C360.491 121.129 360.352 120.711 360.073 120.458C359.82 120.179 359.44 119.989 358.933 119.888L358.363 119.812V119.432L365.469 117.19L365.925 117.57L365.811 122.966V133.53C365.811 135.177 365.735 136.557 365.583 137.672C365.457 138.787 365.216 139.724 364.861 140.484C364.532 141.269 364.051 141.991 363.417 142.65C362.531 143.537 361.568 144.17 360.529 144.55C359.491 144.93 358.477 145.12 357.489 145.12ZM398.202 136.57C396.733 136.57 395.492 136.152 394.478 135.316C393.49 134.48 392.996 133.277 392.996 131.706C392.996 130.515 393.604 129.426 394.82 128.438C396.036 127.425 397.949 126.665 400.558 126.158C400.964 126.082 401.42 126.006 401.926 125.93C402.433 125.829 402.965 125.727 403.522 125.626V122.624C403.522 120.901 403.307 119.698 402.876 119.014C402.471 118.305 401.825 117.95 400.938 117.95C400.33 117.95 399.849 118.153 399.494 118.558C399.14 118.938 398.912 119.609 398.81 120.572L398.734 120.99C398.684 122.079 398.418 122.877 397.936 123.384C397.455 123.891 396.86 124.144 396.15 124.144C395.492 124.144 394.947 123.941 394.516 123.536C394.086 123.131 393.87 122.586 393.87 121.902C393.87 120.863 394.225 119.989 394.934 119.28C395.669 118.571 396.632 118.039 397.822 117.684C399.013 117.329 400.305 117.152 401.698 117.152C403.953 117.152 405.688 117.709 406.904 118.824C408.146 119.913 408.766 121.699 408.766 124.182V132.58C408.766 133.72 409.298 134.29 410.362 134.29H411.198L411.54 134.594C411.059 135.202 410.527 135.671 409.944 136C409.387 136.329 408.589 136.494 407.55 136.494C406.436 136.494 405.549 136.241 404.89 135.734C404.257 135.202 403.839 134.505 403.636 133.644C402.876 134.455 402.091 135.151 401.28 135.734C400.495 136.291 399.469 136.57 398.202 136.57ZM400.52 134.252C401.027 134.252 401.496 134.138 401.926 133.91C402.382 133.657 402.914 133.277 403.522 132.77V126.386C403.269 126.437 403.016 126.487 402.762 126.538C402.509 126.589 402.218 126.639 401.888 126.69C400.723 126.994 399.786 127.513 399.076 128.248C398.392 128.957 398.05 129.92 398.05 131.136C398.05 132.175 398.291 132.96 398.772 133.492C399.254 133.999 399.836 134.252 400.52 134.252Z" fill="#292F36"/>
</svg>
